G04 MADE WITH FRITZING*
G04 WWW.FRITZING.ORG*
G04 DOUBLE SIDED*
G04 HOLES PLATED*
G04 CONTOUR ON CENTER OF CONTOUR VECTOR*
%ASAXBY*%
%FSLAX23Y23*%
%MOIN*%
%OFA0B0*%
%SFA1.0B1.0*%
%ADD10C,0.075000*%
%ADD11C,0.078000*%
%ADD12C,0.082000*%
%ADD13R,0.075000X0.075000*%
%ADD14R,0.078000X0.078000*%
%ADD15C,0.024000*%
%LNCOPPER0*%
G90*
G70*
G54D10*
X590Y689D03*
X1290Y689D03*
X290Y589D03*
X1190Y589D03*
G54D11*
X390Y689D03*
X290Y689D03*
X190Y689D03*
X90Y489D03*
X90Y389D03*
X2190Y389D03*
X2190Y489D03*
X790Y789D03*
X890Y789D03*
X990Y789D03*
X1090Y789D03*
X1190Y789D03*
X1290Y789D03*
G54D10*
X1991Y489D03*
X1991Y189D03*
X1891Y489D03*
X1891Y189D03*
X1791Y489D03*
X1791Y189D03*
X1691Y489D03*
X1691Y189D03*
X290Y189D03*
X290Y489D03*
X390Y189D03*
X390Y489D03*
X490Y189D03*
X490Y489D03*
X590Y189D03*
X590Y489D03*
X690Y189D03*
X690Y489D03*
X790Y189D03*
X790Y489D03*
X890Y189D03*
X890Y489D03*
X990Y189D03*
X990Y489D03*
X1090Y189D03*
X1090Y489D03*
X1190Y189D03*
X1190Y489D03*
X1290Y189D03*
X1290Y489D03*
X1390Y189D03*
X1390Y489D03*
X1490Y189D03*
X1490Y489D03*
X1590Y189D03*
X1590Y489D03*
G54D11*
X90Y289D03*
X90Y189D03*
X2190Y289D03*
X2190Y189D03*
G54D12*
X1290Y89D03*
X690Y89D03*
X90Y89D03*
X690Y89D03*
G54D13*
X1991Y489D03*
X290Y189D03*
G54D14*
X90Y289D03*
X2190Y289D03*
G54D15*
X2091Y288D02*
X2091Y189D01*
D02*
X1891Y389D02*
X2091Y288D01*
D02*
X2091Y189D02*
X2160Y189D01*
D02*
X1891Y460D02*
X1891Y389D01*
D02*
X1819Y489D02*
X1862Y489D01*
D02*
X1691Y288D02*
X1492Y288D01*
D02*
X1492Y288D02*
X1411Y209D01*
D02*
X1771Y209D02*
X1691Y288D01*
D02*
X1790Y88D02*
X1871Y169D01*
D02*
X1390Y88D02*
X1790Y88D01*
D02*
X1311Y168D02*
X1390Y88D01*
D02*
X190Y89D02*
X123Y89D01*
D02*
X190Y288D02*
X190Y89D01*
D02*
X1190Y288D02*
X190Y288D01*
D02*
X1691Y389D02*
X1190Y288D01*
D02*
X1771Y469D02*
X1691Y389D01*
D02*
X890Y517D02*
X890Y758D01*
D02*
X1391Y389D02*
X1470Y468D01*
D02*
X121Y389D02*
X1391Y389D01*
D02*
X1391Y690D02*
X1312Y767D01*
D02*
X1490Y588D02*
X1391Y690D01*
D02*
X1890Y588D02*
X1490Y588D01*
D02*
X1970Y509D02*
X1890Y588D01*
D02*
X391Y588D02*
X390Y658D01*
D02*
X591Y588D02*
X391Y588D01*
D02*
X691Y690D02*
X591Y588D01*
D02*
X890Y690D02*
X691Y690D01*
D02*
X890Y758D02*
X890Y690D01*
G04 End of Copper0*
M02*