; NON-PLATED HOLES START AT T1
; THROUGH (PLATED) HOLES START AT T100
M48
INCH
T1C0.078740
T100C0.038000
T101C0.042000
T102C0.035000
%
T1
X020904Y000885
X020904Y007885
X001904Y007885
T100
X009904Y007885
X021904Y003885
X000904Y003885
X000904Y001885
X010904Y007885
X007904Y007885
X021904Y002885
X011904Y007885
X000904Y002885
X008904Y007885
X000904Y004885
X001904Y006885
X021904Y001885
X021904Y004885
X002904Y006885
X012904Y007885
X003904Y006885
T101
X000904Y000885
X006904Y000885
X012904Y000885
T102
X012904Y001885
X008904Y001885
X015904Y004885
X002904Y004885
X013904Y001885
X002904Y005885
X010904Y004885
X019908Y004889
X004904Y001885
X014904Y001885
X006904Y001885
X016908Y001889
X010904Y001885
X014904Y004885
X012904Y004885
X007904Y004885
X011904Y001885
X003904Y001885
X005904Y001885
X007904Y001885
X013904Y004885
X008904Y004885
X018908Y001889
X009904Y001885
X018908Y004889
X009904Y004885
X019908Y001889
X004904Y004885
X005904Y004885
X015904Y001885
X016908Y004889
X012904Y006885
X011904Y004885
X011904Y005885
X006904Y004885
X003904Y004885
X017908Y004889
X002904Y001885
X005904Y006885
X017908Y001889
T00
M30
